<mxfile host="app.diagrams.net" modified="2021-03-08T14:24:41.834Z" agent="5.0 (Macintosh; Intel Mac OS X 10_13_6) AppleWebKit/537.36 (KHTML, like Gecko) Chrome/88.0.4324.192 Safari/537.36" etag="lDjkfWZOiSp-otEnYy2I" version="14.4.4" type="github">
  <diagram id="SUy6hZQOZVlMQsiGEnH-" name="Page-1">
    <mxGraphModel dx="1026" dy="546" grid="1" gridSize="10" guides="1" tooltips="1" connect="1" arrows="1" fold="1" page="1" pageScale="1" pageWidth="850" pageHeight="1100" math="0" shadow="0">
      <root>
        <mxCell id="0" />
        <mxCell id="1" parent="0" />
        <mxCell id="L38ka3nKr1v1wqfH4XMU-5" value="Administradora" style="shape=table;startSize=30;container=1;collapsible=1;childLayout=tableLayout;fixedRows=1;rowLines=0;fontStyle=1;align=center;resizeLast=1;" vertex="1" parent="1">
          <mxGeometry x="50" y="40" width="180" height="160" as="geometry" />
        </mxCell>
        <mxCell id="L38ka3nKr1v1wqfH4XMU-6" value="" style="shape=partialRectangle;collapsible=0;dropTarget=0;pointerEvents=0;fillColor=none;top=0;left=0;bottom=1;right=0;points=[[0,0.5],[1,0.5]];portConstraint=eastwest;" vertex="1" parent="L38ka3nKr1v1wqfH4XMU-5">
          <mxGeometry y="30" width="180" height="30" as="geometry" />
        </mxCell>
        <mxCell id="L38ka3nKr1v1wqfH4XMU-7" value="PK" style="shape=partialRectangle;connectable=0;fillColor=none;top=0;left=0;bottom=0;right=0;fontStyle=1;overflow=hidden;" vertex="1" parent="L38ka3nKr1v1wqfH4XMU-6">
          <mxGeometry width="30" height="30" as="geometry" />
        </mxCell>
        <mxCell id="L38ka3nKr1v1wqfH4XMU-8" value="IdAdmin" style="shape=partialRectangle;connectable=0;fillColor=none;top=0;left=0;bottom=0;right=0;align=left;spacingLeft=6;fontStyle=5;overflow=hidden;" vertex="1" parent="L38ka3nKr1v1wqfH4XMU-6">
          <mxGeometry x="30" width="150" height="30" as="geometry" />
        </mxCell>
        <mxCell id="L38ka3nKr1v1wqfH4XMU-9" value="" style="shape=partialRectangle;collapsible=0;dropTarget=0;pointerEvents=0;fillColor=none;top=0;left=0;bottom=0;right=0;points=[[0,0.5],[1,0.5]];portConstraint=eastwest;" vertex="1" parent="L38ka3nKr1v1wqfH4XMU-5">
          <mxGeometry y="60" width="180" height="30" as="geometry" />
        </mxCell>
        <mxCell id="L38ka3nKr1v1wqfH4XMU-10" value="" style="shape=partialRectangle;connectable=0;fillColor=none;top=0;left=0;bottom=0;right=0;editable=1;overflow=hidden;" vertex="1" parent="L38ka3nKr1v1wqfH4XMU-9">
          <mxGeometry width="30" height="30" as="geometry" />
        </mxCell>
        <mxCell id="L38ka3nKr1v1wqfH4XMU-11" value="Nome" style="shape=partialRectangle;connectable=0;fillColor=none;top=0;left=0;bottom=0;right=0;align=left;spacingLeft=6;overflow=hidden;" vertex="1" parent="L38ka3nKr1v1wqfH4XMU-9">
          <mxGeometry x="30" width="150" height="30" as="geometry" />
        </mxCell>
        <mxCell id="L38ka3nKr1v1wqfH4XMU-12" value="" style="shape=partialRectangle;collapsible=0;dropTarget=0;pointerEvents=0;fillColor=none;top=0;left=0;bottom=0;right=0;points=[[0,0.5],[1,0.5]];portConstraint=eastwest;" vertex="1" parent="L38ka3nKr1v1wqfH4XMU-5">
          <mxGeometry y="90" width="180" height="30" as="geometry" />
        </mxCell>
        <mxCell id="L38ka3nKr1v1wqfH4XMU-13" value="" style="shape=partialRectangle;connectable=0;fillColor=none;top=0;left=0;bottom=0;right=0;editable=1;overflow=hidden;" vertex="1" parent="L38ka3nKr1v1wqfH4XMU-12">
          <mxGeometry width="30" height="30" as="geometry" />
        </mxCell>
        <mxCell id="L38ka3nKr1v1wqfH4XMU-14" value="Descrição" style="shape=partialRectangle;connectable=0;fillColor=none;top=0;left=0;bottom=0;right=0;align=left;spacingLeft=6;overflow=hidden;" vertex="1" parent="L38ka3nKr1v1wqfH4XMU-12">
          <mxGeometry x="30" width="150" height="30" as="geometry" />
        </mxCell>
        <mxCell id="L38ka3nKr1v1wqfH4XMU-15" value="" style="shape=partialRectangle;collapsible=0;dropTarget=0;pointerEvents=0;fillColor=none;top=0;left=0;bottom=0;right=0;points=[[0,0.5],[1,0.5]];portConstraint=eastwest;" vertex="1" parent="L38ka3nKr1v1wqfH4XMU-5">
          <mxGeometry y="120" width="180" height="30" as="geometry" />
        </mxCell>
        <mxCell id="L38ka3nKr1v1wqfH4XMU-16" value="" style="shape=partialRectangle;connectable=0;fillColor=none;top=0;left=0;bottom=0;right=0;editable=1;overflow=hidden;" vertex="1" parent="L38ka3nKr1v1wqfH4XMU-15">
          <mxGeometry width="30" height="30" as="geometry" />
        </mxCell>
        <mxCell id="L38ka3nKr1v1wqfH4XMU-17" value="" style="shape=partialRectangle;connectable=0;fillColor=none;top=0;left=0;bottom=0;right=0;align=left;spacingLeft=6;overflow=hidden;" vertex="1" parent="L38ka3nKr1v1wqfH4XMU-15">
          <mxGeometry x="30" width="150" height="30" as="geometry" />
        </mxCell>
        <mxCell id="L38ka3nKr1v1wqfH4XMU-18" value="Condomínio" style="shape=table;startSize=30;container=1;collapsible=1;childLayout=tableLayout;fixedRows=1;rowLines=0;fontStyle=1;align=center;resizeLast=1;" vertex="1" parent="1">
          <mxGeometry x="370" y="20" width="180" height="160" as="geometry" />
        </mxCell>
        <mxCell id="L38ka3nKr1v1wqfH4XMU-19" value="" style="shape=partialRectangle;collapsible=0;dropTarget=0;pointerEvents=0;fillColor=none;top=0;left=0;bottom=1;right=0;points=[[0,0.5],[1,0.5]];portConstraint=eastwest;" vertex="1" parent="L38ka3nKr1v1wqfH4XMU-18">
          <mxGeometry y="30" width="180" height="30" as="geometry" />
        </mxCell>
        <mxCell id="L38ka3nKr1v1wqfH4XMU-20" value="PK" style="shape=partialRectangle;connectable=0;fillColor=none;top=0;left=0;bottom=0;right=0;fontStyle=1;overflow=hidden;" vertex="1" parent="L38ka3nKr1v1wqfH4XMU-19">
          <mxGeometry width="30" height="30" as="geometry" />
        </mxCell>
        <mxCell id="L38ka3nKr1v1wqfH4XMU-21" value="IDcondominio" style="shape=partialRectangle;connectable=0;fillColor=none;top=0;left=0;bottom=0;right=0;align=left;spacingLeft=6;fontStyle=5;overflow=hidden;" vertex="1" parent="L38ka3nKr1v1wqfH4XMU-19">
          <mxGeometry x="30" width="150" height="30" as="geometry" />
        </mxCell>
        <mxCell id="L38ka3nKr1v1wqfH4XMU-22" value="" style="shape=partialRectangle;collapsible=0;dropTarget=0;pointerEvents=0;fillColor=none;top=0;left=0;bottom=0;right=0;points=[[0,0.5],[1,0.5]];portConstraint=eastwest;" vertex="1" parent="L38ka3nKr1v1wqfH4XMU-18">
          <mxGeometry y="60" width="180" height="30" as="geometry" />
        </mxCell>
        <mxCell id="L38ka3nKr1v1wqfH4XMU-23" value="" style="shape=partialRectangle;connectable=0;fillColor=none;top=0;left=0;bottom=0;right=0;editable=1;overflow=hidden;" vertex="1" parent="L38ka3nKr1v1wqfH4XMU-22">
          <mxGeometry width="30" height="30" as="geometry" />
        </mxCell>
        <mxCell id="L38ka3nKr1v1wqfH4XMU-24" value="Nome" style="shape=partialRectangle;connectable=0;fillColor=none;top=0;left=0;bottom=0;right=0;align=left;spacingLeft=6;overflow=hidden;" vertex="1" parent="L38ka3nKr1v1wqfH4XMU-22">
          <mxGeometry x="30" width="150" height="30" as="geometry" />
        </mxCell>
        <mxCell id="L38ka3nKr1v1wqfH4XMU-25" value="" style="shape=partialRectangle;collapsible=0;dropTarget=0;pointerEvents=0;fillColor=none;top=0;left=0;bottom=0;right=0;points=[[0,0.5],[1,0.5]];portConstraint=eastwest;" vertex="1" parent="L38ka3nKr1v1wqfH4XMU-18">
          <mxGeometry y="90" width="180" height="30" as="geometry" />
        </mxCell>
        <mxCell id="L38ka3nKr1v1wqfH4XMU-26" value="FK" style="shape=partialRectangle;connectable=0;fillColor=none;top=0;left=0;bottom=0;right=0;editable=1;overflow=hidden;" vertex="1" parent="L38ka3nKr1v1wqfH4XMU-25">
          <mxGeometry width="30" height="30" as="geometry" />
        </mxCell>
        <mxCell id="L38ka3nKr1v1wqfH4XMU-27" value="IdAdmin" style="shape=partialRectangle;connectable=0;fillColor=none;top=0;left=0;bottom=0;right=0;align=left;spacingLeft=6;overflow=hidden;" vertex="1" parent="L38ka3nKr1v1wqfH4XMU-25">
          <mxGeometry x="30" width="150" height="30" as="geometry" />
        </mxCell>
        <mxCell id="L38ka3nKr1v1wqfH4XMU-28" value="" style="shape=partialRectangle;collapsible=0;dropTarget=0;pointerEvents=0;fillColor=none;top=0;left=0;bottom=0;right=0;points=[[0,0.5],[1,0.5]];portConstraint=eastwest;" vertex="1" parent="L38ka3nKr1v1wqfH4XMU-18">
          <mxGeometry y="120" width="180" height="30" as="geometry" />
        </mxCell>
        <mxCell id="L38ka3nKr1v1wqfH4XMU-29" value="" style="shape=partialRectangle;connectable=0;fillColor=none;top=0;left=0;bottom=0;right=0;editable=1;overflow=hidden;" vertex="1" parent="L38ka3nKr1v1wqfH4XMU-28">
          <mxGeometry width="30" height="30" as="geometry" />
        </mxCell>
        <mxCell id="L38ka3nKr1v1wqfH4XMU-30" value="" style="shape=partialRectangle;connectable=0;fillColor=none;top=0;left=0;bottom=0;right=0;align=left;spacingLeft=6;overflow=hidden;" vertex="1" parent="L38ka3nKr1v1wqfH4XMU-28">
          <mxGeometry x="30" width="150" height="30" as="geometry" />
        </mxCell>
        <mxCell id="L38ka3nKr1v1wqfH4XMU-31" value="Unidade" style="shape=table;startSize=30;container=1;collapsible=1;childLayout=tableLayout;fixedRows=1;rowLines=0;fontStyle=1;align=center;resizeLast=1;" vertex="1" parent="1">
          <mxGeometry x="610" y="270" width="180" height="160" as="geometry" />
        </mxCell>
        <mxCell id="L38ka3nKr1v1wqfH4XMU-32" value="" style="shape=partialRectangle;collapsible=0;dropTarget=0;pointerEvents=0;fillColor=none;top=0;left=0;bottom=1;right=0;points=[[0,0.5],[1,0.5]];portConstraint=eastwest;" vertex="1" parent="L38ka3nKr1v1wqfH4XMU-31">
          <mxGeometry y="30" width="180" height="30" as="geometry" />
        </mxCell>
        <mxCell id="L38ka3nKr1v1wqfH4XMU-33" value="PK" style="shape=partialRectangle;connectable=0;fillColor=none;top=0;left=0;bottom=0;right=0;fontStyle=1;overflow=hidden;" vertex="1" parent="L38ka3nKr1v1wqfH4XMU-32">
          <mxGeometry width="30" height="30" as="geometry" />
        </mxCell>
        <mxCell id="L38ka3nKr1v1wqfH4XMU-34" value="IdUnidade" style="shape=partialRectangle;connectable=0;fillColor=none;top=0;left=0;bottom=0;right=0;align=left;spacingLeft=6;fontStyle=5;overflow=hidden;" vertex="1" parent="L38ka3nKr1v1wqfH4XMU-32">
          <mxGeometry x="30" width="150" height="30" as="geometry" />
        </mxCell>
        <mxCell id="L38ka3nKr1v1wqfH4XMU-35" value="" style="shape=partialRectangle;collapsible=0;dropTarget=0;pointerEvents=0;fillColor=none;top=0;left=0;bottom=0;right=0;points=[[0,0.5],[1,0.5]];portConstraint=eastwest;" vertex="1" parent="L38ka3nKr1v1wqfH4XMU-31">
          <mxGeometry y="60" width="180" height="30" as="geometry" />
        </mxCell>
        <mxCell id="L38ka3nKr1v1wqfH4XMU-36" value="" style="shape=partialRectangle;connectable=0;fillColor=none;top=0;left=0;bottom=0;right=0;editable=1;overflow=hidden;" vertex="1" parent="L38ka3nKr1v1wqfH4XMU-35">
          <mxGeometry width="30" height="30" as="geometry" />
        </mxCell>
        <mxCell id="L38ka3nKr1v1wqfH4XMU-37" value="Nome" style="shape=partialRectangle;connectable=0;fillColor=none;top=0;left=0;bottom=0;right=0;align=left;spacingLeft=6;overflow=hidden;" vertex="1" parent="L38ka3nKr1v1wqfH4XMU-35">
          <mxGeometry x="30" width="150" height="30" as="geometry" />
        </mxCell>
        <mxCell id="L38ka3nKr1v1wqfH4XMU-38" value="" style="shape=partialRectangle;collapsible=0;dropTarget=0;pointerEvents=0;fillColor=none;top=0;left=0;bottom=0;right=0;points=[[0,0.5],[1,0.5]];portConstraint=eastwest;" vertex="1" parent="L38ka3nKr1v1wqfH4XMU-31">
          <mxGeometry y="90" width="180" height="30" as="geometry" />
        </mxCell>
        <mxCell id="L38ka3nKr1v1wqfH4XMU-39" value="" style="shape=partialRectangle;connectable=0;fillColor=none;top=0;left=0;bottom=0;right=0;editable=1;overflow=hidden;" vertex="1" parent="L38ka3nKr1v1wqfH4XMU-38">
          <mxGeometry width="30" height="30" as="geometry" />
        </mxCell>
        <mxCell id="L38ka3nKr1v1wqfH4XMU-40" value="IDcondominio" style="shape=partialRectangle;connectable=0;fillColor=none;top=0;left=0;bottom=0;right=0;align=left;spacingLeft=6;overflow=hidden;" vertex="1" parent="L38ka3nKr1v1wqfH4XMU-38">
          <mxGeometry x="30" width="150" height="30" as="geometry" />
        </mxCell>
        <mxCell id="L38ka3nKr1v1wqfH4XMU-41" value="" style="shape=partialRectangle;collapsible=0;dropTarget=0;pointerEvents=0;fillColor=none;top=0;left=0;bottom=0;right=0;points=[[0,0.5],[1,0.5]];portConstraint=eastwest;" vertex="1" parent="L38ka3nKr1v1wqfH4XMU-31">
          <mxGeometry y="120" width="180" height="30" as="geometry" />
        </mxCell>
        <mxCell id="L38ka3nKr1v1wqfH4XMU-42" value="" style="shape=partialRectangle;connectable=0;fillColor=none;top=0;left=0;bottom=0;right=0;editable=1;overflow=hidden;" vertex="1" parent="L38ka3nKr1v1wqfH4XMU-41">
          <mxGeometry width="30" height="30" as="geometry" />
        </mxCell>
        <mxCell id="L38ka3nKr1v1wqfH4XMU-43" value="CPFLocatario" style="shape=partialRectangle;connectable=0;fillColor=none;top=0;left=0;bottom=0;right=0;align=left;spacingLeft=6;overflow=hidden;" vertex="1" parent="L38ka3nKr1v1wqfH4XMU-41">
          <mxGeometry x="30" width="150" height="30" as="geometry" />
        </mxCell>
        <mxCell id="L38ka3nKr1v1wqfH4XMU-45" style="edgeStyle=orthogonalEdgeStyle;rounded=0;orthogonalLoop=1;jettySize=auto;html=1;exitX=0;exitY=0.5;exitDx=0;exitDy=0;entryX=1;entryY=0.5;entryDx=0;entryDy=0;" edge="1" parent="1" source="L38ka3nKr1v1wqfH4XMU-25" target="L38ka3nKr1v1wqfH4XMU-6">
          <mxGeometry relative="1" as="geometry" />
        </mxCell>
        <mxCell id="L38ka3nKr1v1wqfH4XMU-46" value="Pessoa" style="shape=table;startSize=30;container=1;collapsible=1;childLayout=tableLayout;fixedRows=1;rowLines=0;fontStyle=1;align=center;resizeLast=1;" vertex="1" parent="1">
          <mxGeometry x="90" y="290" width="180" height="160" as="geometry" />
        </mxCell>
        <mxCell id="L38ka3nKr1v1wqfH4XMU-47" value="" style="shape=partialRectangle;collapsible=0;dropTarget=0;pointerEvents=0;fillColor=none;top=0;left=0;bottom=1;right=0;points=[[0,0.5],[1,0.5]];portConstraint=eastwest;" vertex="1" parent="L38ka3nKr1v1wqfH4XMU-46">
          <mxGeometry y="30" width="180" height="30" as="geometry" />
        </mxCell>
        <mxCell id="L38ka3nKr1v1wqfH4XMU-48" value="PK" style="shape=partialRectangle;connectable=0;fillColor=none;top=0;left=0;bottom=0;right=0;fontStyle=1;overflow=hidden;" vertex="1" parent="L38ka3nKr1v1wqfH4XMU-47">
          <mxGeometry width="30" height="30" as="geometry" />
        </mxCell>
        <mxCell id="L38ka3nKr1v1wqfH4XMU-49" value="CPF" style="shape=partialRectangle;connectable=0;fillColor=none;top=0;left=0;bottom=0;right=0;align=left;spacingLeft=6;fontStyle=5;overflow=hidden;" vertex="1" parent="L38ka3nKr1v1wqfH4XMU-47">
          <mxGeometry x="30" width="150" height="30" as="geometry" />
        </mxCell>
        <mxCell id="L38ka3nKr1v1wqfH4XMU-50" value="" style="shape=partialRectangle;collapsible=0;dropTarget=0;pointerEvents=0;fillColor=none;top=0;left=0;bottom=0;right=0;points=[[0,0.5],[1,0.5]];portConstraint=eastwest;" vertex="1" parent="L38ka3nKr1v1wqfH4XMU-46">
          <mxGeometry y="60" width="180" height="30" as="geometry" />
        </mxCell>
        <mxCell id="L38ka3nKr1v1wqfH4XMU-51" value="" style="shape=partialRectangle;connectable=0;fillColor=none;top=0;left=0;bottom=0;right=0;editable=1;overflow=hidden;" vertex="1" parent="L38ka3nKr1v1wqfH4XMU-50">
          <mxGeometry width="30" height="30" as="geometry" />
        </mxCell>
        <mxCell id="L38ka3nKr1v1wqfH4XMU-52" value="Nome" style="shape=partialRectangle;connectable=0;fillColor=none;top=0;left=0;bottom=0;right=0;align=left;spacingLeft=6;overflow=hidden;" vertex="1" parent="L38ka3nKr1v1wqfH4XMU-50">
          <mxGeometry x="30" width="150" height="30" as="geometry" />
        </mxCell>
        <mxCell id="L38ka3nKr1v1wqfH4XMU-53" value="" style="shape=partialRectangle;collapsible=0;dropTarget=0;pointerEvents=0;fillColor=none;top=0;left=0;bottom=0;right=0;points=[[0,0.5],[1,0.5]];portConstraint=eastwest;" vertex="1" parent="L38ka3nKr1v1wqfH4XMU-46">
          <mxGeometry y="90" width="180" height="30" as="geometry" />
        </mxCell>
        <mxCell id="L38ka3nKr1v1wqfH4XMU-54" value="" style="shape=partialRectangle;connectable=0;fillColor=none;top=0;left=0;bottom=0;right=0;editable=1;overflow=hidden;" vertex="1" parent="L38ka3nKr1v1wqfH4XMU-53">
          <mxGeometry width="30" height="30" as="geometry" />
        </mxCell>
        <mxCell id="L38ka3nKr1v1wqfH4XMU-55" value="" style="shape=partialRectangle;connectable=0;fillColor=none;top=0;left=0;bottom=0;right=0;align=left;spacingLeft=6;overflow=hidden;" vertex="1" parent="L38ka3nKr1v1wqfH4XMU-53">
          <mxGeometry x="30" width="150" height="30" as="geometry" />
        </mxCell>
        <mxCell id="L38ka3nKr1v1wqfH4XMU-56" value="" style="shape=partialRectangle;collapsible=0;dropTarget=0;pointerEvents=0;fillColor=none;top=0;left=0;bottom=0;right=0;points=[[0,0.5],[1,0.5]];portConstraint=eastwest;" vertex="1" parent="L38ka3nKr1v1wqfH4XMU-46">
          <mxGeometry y="120" width="180" height="30" as="geometry" />
        </mxCell>
        <mxCell id="L38ka3nKr1v1wqfH4XMU-57" value="" style="shape=partialRectangle;connectable=0;fillColor=none;top=0;left=0;bottom=0;right=0;editable=1;overflow=hidden;" vertex="1" parent="L38ka3nKr1v1wqfH4XMU-56">
          <mxGeometry width="30" height="30" as="geometry" />
        </mxCell>
        <mxCell id="L38ka3nKr1v1wqfH4XMU-58" value="" style="shape=partialRectangle;connectable=0;fillColor=none;top=0;left=0;bottom=0;right=0;align=left;spacingLeft=6;overflow=hidden;" vertex="1" parent="L38ka3nKr1v1wqfH4XMU-56">
          <mxGeometry x="30" width="150" height="30" as="geometry" />
        </mxCell>
        <mxCell id="L38ka3nKr1v1wqfH4XMU-60" style="edgeStyle=orthogonalEdgeStyle;rounded=0;orthogonalLoop=1;jettySize=auto;html=1;exitX=0;exitY=0.5;exitDx=0;exitDy=0;entryX=1;entryY=0.5;entryDx=0;entryDy=0;" edge="1" parent="1" source="L38ka3nKr1v1wqfH4XMU-38" target="L38ka3nKr1v1wqfH4XMU-19">
          <mxGeometry relative="1" as="geometry" />
        </mxCell>
        <mxCell id="L38ka3nKr1v1wqfH4XMU-61" style="edgeStyle=orthogonalEdgeStyle;rounded=0;orthogonalLoop=1;jettySize=auto;html=1;exitX=0;exitY=0.5;exitDx=0;exitDy=0;entryX=1.017;entryY=0.3;entryDx=0;entryDy=0;entryPerimeter=0;" edge="1" parent="1" source="L38ka3nKr1v1wqfH4XMU-41" target="L38ka3nKr1v1wqfH4XMU-47">
          <mxGeometry relative="1" as="geometry" />
        </mxCell>
        <mxCell id="L38ka3nKr1v1wqfH4XMU-62" value="Dono" style="shape=table;startSize=30;container=1;collapsible=1;childLayout=tableLayout;fixedRows=1;rowLines=0;fontStyle=1;align=center;resizeLast=1;" vertex="1" parent="1">
          <mxGeometry x="320" y="470" width="180" height="160" as="geometry" />
        </mxCell>
        <mxCell id="L38ka3nKr1v1wqfH4XMU-63" value="" style="shape=partialRectangle;collapsible=0;dropTarget=0;pointerEvents=0;fillColor=none;top=0;left=0;bottom=1;right=0;points=[[0,0.5],[1,0.5]];portConstraint=eastwest;" vertex="1" parent="L38ka3nKr1v1wqfH4XMU-62">
          <mxGeometry y="30" width="180" height="30" as="geometry" />
        </mxCell>
        <mxCell id="L38ka3nKr1v1wqfH4XMU-64" value="PK" style="shape=partialRectangle;connectable=0;fillColor=none;top=0;left=0;bottom=0;right=0;fontStyle=1;overflow=hidden;" vertex="1" parent="L38ka3nKr1v1wqfH4XMU-63">
          <mxGeometry width="30" height="30" as="geometry" />
        </mxCell>
        <mxCell id="L38ka3nKr1v1wqfH4XMU-65" value="IDUnidade" style="shape=partialRectangle;connectable=0;fillColor=none;top=0;left=0;bottom=0;right=0;align=left;spacingLeft=6;fontStyle=5;overflow=hidden;" vertex="1" parent="L38ka3nKr1v1wqfH4XMU-63">
          <mxGeometry x="30" width="150" height="30" as="geometry" />
        </mxCell>
        <mxCell id="L38ka3nKr1v1wqfH4XMU-66" value="" style="shape=partialRectangle;collapsible=0;dropTarget=0;pointerEvents=0;fillColor=none;top=0;left=0;bottom=0;right=0;points=[[0,0.5],[1,0.5]];portConstraint=eastwest;" vertex="1" parent="L38ka3nKr1v1wqfH4XMU-62">
          <mxGeometry y="60" width="180" height="30" as="geometry" />
        </mxCell>
        <mxCell id="L38ka3nKr1v1wqfH4XMU-67" value="PK" style="shape=partialRectangle;connectable=0;fillColor=none;top=0;left=0;bottom=0;right=0;editable=1;overflow=hidden;fontStyle=1" vertex="1" parent="L38ka3nKr1v1wqfH4XMU-66">
          <mxGeometry width="30" height="30" as="geometry" />
        </mxCell>
        <mxCell id="L38ka3nKr1v1wqfH4XMU-68" value="CPFDONO" style="shape=partialRectangle;connectable=0;fillColor=none;top=0;left=0;bottom=0;right=0;align=left;spacingLeft=6;overflow=hidden;fontStyle=5" vertex="1" parent="L38ka3nKr1v1wqfH4XMU-66">
          <mxGeometry x="30" width="150" height="30" as="geometry" />
        </mxCell>
        <mxCell id="L38ka3nKr1v1wqfH4XMU-69" value="" style="shape=partialRectangle;collapsible=0;dropTarget=0;pointerEvents=0;fillColor=none;top=0;left=0;bottom=0;right=0;points=[[0,0.5],[1,0.5]];portConstraint=eastwest;" vertex="1" parent="L38ka3nKr1v1wqfH4XMU-62">
          <mxGeometry y="90" width="180" height="30" as="geometry" />
        </mxCell>
        <mxCell id="L38ka3nKr1v1wqfH4XMU-70" value="" style="shape=partialRectangle;connectable=0;fillColor=none;top=0;left=0;bottom=0;right=0;editable=1;overflow=hidden;" vertex="1" parent="L38ka3nKr1v1wqfH4XMU-69">
          <mxGeometry width="30" height="30" as="geometry" />
        </mxCell>
        <mxCell id="L38ka3nKr1v1wqfH4XMU-71" value="" style="shape=partialRectangle;connectable=0;fillColor=none;top=0;left=0;bottom=0;right=0;align=left;spacingLeft=6;overflow=hidden;" vertex="1" parent="L38ka3nKr1v1wqfH4XMU-69">
          <mxGeometry x="30" width="150" height="30" as="geometry" />
        </mxCell>
        <mxCell id="L38ka3nKr1v1wqfH4XMU-72" value="" style="shape=partialRectangle;collapsible=0;dropTarget=0;pointerEvents=0;fillColor=none;top=0;left=0;bottom=0;right=0;points=[[0,0.5],[1,0.5]];portConstraint=eastwest;" vertex="1" parent="L38ka3nKr1v1wqfH4XMU-62">
          <mxGeometry y="120" width="180" height="30" as="geometry" />
        </mxCell>
        <mxCell id="L38ka3nKr1v1wqfH4XMU-73" value="" style="shape=partialRectangle;connectable=0;fillColor=none;top=0;left=0;bottom=0;right=0;editable=1;overflow=hidden;" vertex="1" parent="L38ka3nKr1v1wqfH4XMU-72">
          <mxGeometry width="30" height="30" as="geometry" />
        </mxCell>
        <mxCell id="L38ka3nKr1v1wqfH4XMU-74" value="" style="shape=partialRectangle;connectable=0;fillColor=none;top=0;left=0;bottom=0;right=0;align=left;spacingLeft=6;overflow=hidden;" vertex="1" parent="L38ka3nKr1v1wqfH4XMU-72">
          <mxGeometry x="30" width="150" height="30" as="geometry" />
        </mxCell>
        <mxCell id="L38ka3nKr1v1wqfH4XMU-76" style="edgeStyle=orthogonalEdgeStyle;rounded=0;orthogonalLoop=1;jettySize=auto;html=1;exitX=1;exitY=0.5;exitDx=0;exitDy=0;entryX=0;entryY=0.5;entryDx=0;entryDy=0;" edge="1" parent="1" source="L38ka3nKr1v1wqfH4XMU-63" target="L38ka3nKr1v1wqfH4XMU-32">
          <mxGeometry relative="1" as="geometry" />
        </mxCell>
        <mxCell id="L38ka3nKr1v1wqfH4XMU-77" style="edgeStyle=orthogonalEdgeStyle;rounded=0;orthogonalLoop=1;jettySize=auto;html=1;exitX=0;exitY=0.5;exitDx=0;exitDy=0;entryX=1;entryY=0.5;entryDx=0;entryDy=0;" edge="1" parent="1" source="L38ka3nKr1v1wqfH4XMU-66" target="L38ka3nKr1v1wqfH4XMU-47">
          <mxGeometry relative="1" as="geometry" />
        </mxCell>
      </root>
    </mxGraphModel>
  </diagram>
</mxfile>
